<svg width="28" height="28" viewBox="0 0 28 28" fill="none" xmlns="http://www.w3.org/2000/svg">
<path d="M21.6742 16.8778C22.5038 18.4333 23.3334 19.0556 23.3334 19.0556H4.66675C4.66675 19.0556 7.77786 16.9815 7.77786 9.72222C7.77786 6.3 10.5779 3.5 14.0001 3.5C14.726 3.5 15.3482 3.6037 15.9705 3.81111M12.2367 23.2037C12.4103 23.5194 12.6655 23.7827 12.9756 23.9661C13.2857 24.1495 13.6394 24.2462 13.9997 24.2462C14.36 24.2462 14.7136 24.1495 15.0238 23.9661C15.3339 23.7827 15.5891 23.5194 15.7626 23.2037" stroke="white" stroke-width="2.1" stroke-linecap="round" stroke-linejoin="round"/>
<path d="M20.2224 12.8334C21.9407 12.8334 23.3336 11.4405 23.3336 9.72226C23.3336 8.00404 21.9407 6.61115 20.2224 6.61115C18.5042 6.61115 17.1113 8.00404 17.1113 9.72226C17.1113 11.4405 18.5042 12.8334 20.2224 12.8334Z" fill="#DD403C" stroke="#FF0000" stroke-width="2.07407" stroke-linecap="round" stroke-linejoin="round"/>
</svg>
