<svg width="18" height="18" viewBox="0 0 18 18" fill="none" xmlns="http://www.w3.org/2000/svg">
<path d="M7.7977 0.461049C8.12808 0.16421 8.55655 0 9.0007 0C9.44485 0 9.87331 0.16421 10.2037 0.461049L16.8037 6.39145C16.9914 6.5602 17.1414 6.76653 17.2442 6.99703C17.3469 7.22754 17.4 7.47708 17.4001 7.72945V16.1954C17.4001 16.6728 17.2105 17.1307 16.8729 17.4682C16.5353 17.8058 16.0775 17.9954 15.6001 17.9954H12.6001C12.1227 17.9954 11.6649 17.8058 11.3273 17.4682C10.9897 17.1307 10.8001 16.6728 10.8001 16.1954V11.9954C10.8001 11.8363 10.7369 11.6837 10.6244 11.5712C10.5118 11.4587 10.3592 11.3954 10.2001 11.3954H7.8001C7.64097 11.3954 7.48835 11.4587 7.37583 11.5712C7.26331 11.6837 7.2001 11.8363 7.2001 11.9954V16.1954C7.2001 16.6728 7.01046 17.1307 6.67289 17.4682C6.33532 17.8058 5.87749 17.9954 5.4001 17.9954H2.4001C1.92271 17.9954 1.46487 17.8058 1.12731 17.4682C0.78974 17.1307 0.600098 16.6728 0.600098 16.1954V7.72945C0.600098 7.21945 0.816098 6.73345 1.1977 6.39145L7.7977 0.461049ZM9.4009 1.35385C9.29079 1.25501 9.14805 1.20035 9.0001 1.20035C8.85214 1.20035 8.7094 1.25501 8.5993 1.35385L1.9993 7.28425C1.93677 7.34037 1.88673 7.409 1.85242 7.4857C1.81811 7.56239 1.80028 7.64543 1.8001 7.72945V16.1954C1.8001 16.3546 1.86331 16.5072 1.97583 16.6197C2.08836 16.7322 2.24097 16.7955 2.4001 16.7955H5.4001C5.55923 16.7955 5.71184 16.7322 5.82436 16.6197C5.93688 16.5072 6.0001 16.3546 6.0001 16.1954V11.9954C6.0001 11.5181 6.18974 11.0602 6.5273 10.7227C6.86487 10.3851 7.32271 10.1954 7.8001 10.1954H10.2001C10.6775 10.1954 11.1353 10.3851 11.4729 10.7227C11.8105 11.0602 12.0001 11.5181 12.0001 11.9954V16.1954C12.0001 16.3546 12.0633 16.5072 12.1758 16.6197C12.2884 16.7322 12.441 16.7955 12.6001 16.7955H15.6001C15.7592 16.7955 15.9118 16.7322 16.0244 16.6197C16.1369 16.5072 16.2001 16.3546 16.2001 16.1954V7.72945C16.1999 7.64543 16.1821 7.56239 16.1478 7.4857C16.1135 7.409 16.0634 7.34037 16.0009 7.28425L9.4009 1.35385Z" fill="#595959"/>
</svg>
