<svg width="18" height="18" viewBox="0 0 18 18" fill="none" xmlns="http://www.w3.org/2000/svg">
<path d="M9 4.35938C8.08217 4.35938 7.18495 4.63154 6.42181 5.14146C5.65866 5.65138 5.06386 6.37615 4.71262 7.22411C4.36138 8.07207 4.26948 9.00515 4.44854 9.90534C4.6276 10.8055 5.06958 11.6324 5.71858 12.2814C6.36759 12.9304 7.19447 13.3724 8.09466 13.5515C8.99485 13.7305 9.92793 13.6386 10.7759 13.2874C11.6239 12.9361 12.3486 12.3413 12.8585 11.5782C13.3685 10.815 13.6406 9.91783 13.6406 9C13.6388 7.7698 13.1492 6.59052 12.2794 5.72064C11.4095 4.85075 10.2302 4.36123 9 4.35938ZM9 12.7969C8.24905 12.7969 7.51496 12.5742 6.89057 12.157C6.26618 11.7398 5.77952 11.1468 5.49214 10.453C5.20477 9.75921 5.12958 8.99579 5.27608 8.25927C5.42258 7.52275 5.7842 6.84621 6.3152 6.3152C6.84621 5.7842 7.52275 5.42258 8.25927 5.27608C8.99579 5.12958 9.75921 5.20477 10.453 5.49214C11.1468 5.77952 11.7398 6.26618 12.157 6.89057C12.5742 7.51496 12.7969 8.24905 12.7969 9C12.7969 10.007 12.3968 10.9727 11.6848 11.6848C10.9727 12.3968 10.007 12.7969 9 12.7969ZM8.57812 2.53125V1.96875C8.57812 1.85686 8.62257 1.74956 8.70169 1.67044C8.78081 1.59132 8.88811 1.54688 9 1.54688C9.11189 1.54688 9.21919 1.59132 9.29831 1.67044C9.37743 1.74956 9.42188 1.85686 9.42188 1.96875V2.53125C9.42188 2.64314 9.37743 2.75044 9.29831 2.82956C9.21919 2.90868 9.11189 2.95312 9 2.95312C8.88811 2.95312 8.78081 2.90868 8.70169 2.82956C8.62257 2.75044 8.57812 2.64314 8.57812 2.53125ZM3.72656 4.32422C3.64731 4.24496 3.60278 4.13747 3.60278 4.02539C3.60278 3.91331 3.64731 3.80582 3.72656 3.72656C3.80582 3.64731 3.91331 3.60278 4.02539 3.60278C4.13747 3.60278 4.24496 3.64731 4.32422 3.72656L4.725 4.12734C4.80275 4.20739 4.84623 4.31458 4.84623 4.42617C4.84623 4.53776 4.80275 4.64495 4.725 4.725C4.68525 4.76426 4.63798 4.79508 4.58603 4.81562C4.53407 4.83616 4.4785 4.84599 4.42266 4.84453C4.36793 4.84544 4.31358 4.83533 4.26285 4.8148C4.21211 4.79426 4.16603 4.76372 4.12734 4.725L3.72656 4.32422ZM2.95312 9C2.95312 9.11189 2.90868 9.21919 2.82956 9.29831C2.75044 9.37743 2.64314 9.42188 2.53125 9.42188H1.96875C1.85686 9.42188 1.74956 9.37743 1.67044 9.29831C1.59132 9.21919 1.54688 9.11189 1.54688 9C1.54688 8.88811 1.59132 8.78081 1.67044 8.70169C1.74956 8.62257 1.85686 8.57812 1.96875 8.57812H2.53125C2.64314 8.57812 2.75044 8.62257 2.82956 8.70169C2.90868 8.78081 2.95312 8.88811 2.95312 9ZM4.725 13.275C4.80275 13.355 4.84623 13.4622 4.84623 13.5738C4.84623 13.6854 4.80275 13.7926 4.725 13.8727L4.32422 14.2734C4.24478 14.3497 4.13904 14.3925 4.02891 14.393C3.91688 14.3915 3.80929 14.349 3.72656 14.2734C3.64882 14.1934 3.60533 14.0862 3.60533 13.9746C3.60533 13.863 3.64882 13.7558 3.72656 13.6758L4.12734 13.275C4.20739 13.1973 4.31458 13.1538 4.42617 13.1538C4.53776 13.1538 4.64495 13.1973 4.725 13.275ZM9.42188 15.4688V16.0312C9.42188 16.1431 9.37743 16.2504 9.29831 16.3296C9.21919 16.4087 9.11189 16.4531 9 16.4531C8.88811 16.4531 8.78081 16.4087 8.70169 16.3296C8.62257 16.2504 8.57812 16.1431 8.57812 16.0312V15.4688C8.57812 15.3569 8.62257 15.2496 8.70169 15.1704C8.78081 15.0913 8.88811 15.0469 9 15.0469C9.11189 15.0469 9.21919 15.0913 9.29831 15.1704C9.37743 15.2496 9.42188 15.3569 9.42188 15.4688ZM14.2734 13.6758C14.3512 13.7558 14.3947 13.863 14.3947 13.9746C14.3947 14.0862 14.3512 14.1934 14.2734 14.2734C14.1907 14.349 14.0831 14.3915 13.9711 14.393C13.861 14.3925 13.7552 14.3497 13.6758 14.2734L13.275 13.8727C13.1957 13.7934 13.1512 13.6859 13.1512 13.5738C13.1512 13.4617 13.1957 13.3543 13.275 13.275C13.3543 13.1957 13.4617 13.1512 13.5738 13.1512C13.6859 13.1512 13.7934 13.1957 13.8727 13.275L14.2734 13.6758ZM16.4531 9C16.4531 9.11189 16.4087 9.21919 16.3296 9.29831C16.2504 9.37743 16.1431 9.42188 16.0312 9.42188H15.4688C15.3569 9.42188 15.2496 9.37743 15.1704 9.29831C15.0913 9.21919 15.0469 9.11189 15.0469 9C15.0469 8.88811 15.0913 8.78081 15.1704 8.70169C15.2496 8.62257 15.3569 8.57812 15.4688 8.57812H16.0312C16.1431 8.57812 16.2504 8.62257 16.3296 8.70169C16.4087 8.78081 16.4531 8.88811 16.4531 9ZM14.2734 3.72656C14.3512 3.80661 14.3947 3.9138 14.3947 4.02539C14.3947 4.13698 14.3512 4.24417 14.2734 4.32422L13.8727 4.725C13.834 4.76372 13.7879 4.79426 13.7372 4.8148C13.6864 4.83533 13.6321 4.84544 13.5773 4.84453C13.5215 4.84599 13.4659 4.83616 13.414 4.81562C13.362 4.79508 13.3148 4.76426 13.275 4.725C13.1973 4.64495 13.1538 4.53776 13.1538 4.42617C13.1538 4.31458 13.1973 4.20739 13.275 4.12734L13.6758 3.72656C13.7558 3.64882 13.863 3.60533 13.9746 3.60533C14.0862 3.60533 14.1934 3.64882 14.2734 3.72656Z" fill="white"/>
</svg>
