<svg width="24" height="17" viewBox="0 0 24 17" fill="none" xmlns="http://www.w3.org/2000/svg">
<path d="M23.7946 4.55782C23.6482 3.11166 23.3308 1.51459 22.1637 0.67425C21.2585 0.0228264 20.0701 -0.00105486 18.9607 3.08474e-05C16.6148 0.00220226 14.2689 0.00438003 11.923 0.00655144C9.66691 0.00872285 7.41082 0.0108874 5.1547 0.0130588C4.21207 0.0130588 3.29615 -0.0607686 2.42085 0.352885C1.66846 0.708996 1.08064 1.3854 0.727952 2.13779C0.236331 3.1855 0.132676 4.37109 0.0738954 5.52953C-0.0351163 7.63797 -0.0233529 9.75292 0.108102 11.8592C0.203221 13.3976 0.44581 15.0968 1.61608 16.0772C2.65383 16.9457 4.11801 16.9881 5.46249 16.9891C9.73318 16.9924 14.0039 16.9957 18.2746 17C18.8218 17 19.3936 16.9902 19.9514 16.9284C21.0501 16.8078 22.0964 16.4886 22.8018 15.6624C23.5135 14.8297 23.6963 13.6691 23.8053 12.5714C24.0682 9.90927 24.065 7.21888 23.7946 4.55782ZM9.45318 12.2338V4.76628L15.8197 8.50002L9.45318 12.2338Z" fill="white"/>
</svg>
